name Walk1.mot
datacolumns 19
datarows 10
range 3.01500000 3.06000000
endheader

                time	   L_ground_force_vx	   L_ground_force_vy	   L_ground_force_vz	   L_ground_force_px	   L_ground_force_py	   L_ground_force_pz	   R_ground_force_vx	   R_ground_force_vy	   R_ground_force_vz	   R_ground_force_px	   R_ground_force_py	   R_ground_force_pz	   L_ground_torque_x	   L_ground_torque_y	   L_ground_torque_z	   R_ground_torque_x	   R_ground_torque_y	   R_ground_torque_z	
          3.01500000	          6.83819987	         40.40845492	         -6.13935171	         -0.00086115	          0.00000000	         -0.00241023	          0.00000000	          0.00000000	          0.00000000	          0.00000000	          0.00000000	          0.00000000	          0.00000000	          0.05696167	          0.00000000	          0.00000000	         -0.00000000	          0.00000000	
          3.02000000	          7.25002348	         65.27355214	         -9.60781259	         -0.08229469	          0.00000000	         -0.02060666	          0.00000000	          0.00000000	          0.00000000	          0.00000000	          0.00000000	          0.00000000	          0.00000000	          0.08210714	          0.00000000	          0.00000000	         -0.00000000	          0.00000000	
          3.02500000	          7.47847776	         92.96091577	        -13.01369243	         -0.15777927	          0.00000000	         -0.03770365	         -0.00000000	          0.00000000	          0.00000000	          0.00000000	          0.00000000	          0.00000000	          0.00000000	          0.11161614	          0.00000000	          0.00000000	         -0.00000000	          0.00000000	
          3.03000000	          7.29144959	        122.36343905	        -16.08562643	         -0.22330566	          0.00000000	         -0.05280893	         -0.00000000	          0.00000000	          0.00000000	          0.00000000	          0.00000000	          0.00000000	          0.00000000	          0.14413552	          0.00000000	          0.00000000	         -0.00000000	          0.00000000	
          3.03500000	          6.35270155	        152.33996512	        -18.57165076	         -0.27701050	          0.00000000	         -0.06549405	         -0.00000000	          0.00000000	          0.00000000	          0.00000000	          0.00000000	          0.00000000	          0.00000000	          0.17688926	          0.00000000	          0.00000000	          0.00000000	          0.00000000	
          3.04000000	          4.30161823	        182.10802958	        -20.26079366	         -0.31859107	          0.00000000	         -0.07568667	         -0.00000000	          0.00000000	          0.00000000	          0.00000000	          0.00000000	          0.00000000	          0.00000000	          0.20536256	          0.00000000	          0.00000000	          0.00000000	          0.00000000	
          3.04500000	          0.86299993	        211.34014178	        -20.97933178	         -0.34877582	          0.00000000	         -0.08354884	         -0.00000000	          0.00000000	         -0.00000000	         -0.00000000	          0.00000000	         -0.00000000	          0.00000000	          0.22365852	          0.00000000	          0.00000000	          0.00000000	          0.00000000	
          3.05000000	         -4.08535724	        240.01722065	        -20.59375622	         -0.36890665	          0.00000000	         -0.08937709	         -0.00000000	          0.00000000	         -0.00000000	         -0.00000000	          0.00000000	         -0.00000000	          0.00000000	          0.22492307	          0.00000000	          0.00000000	          0.00000000	          0.00000000	
          3.05500000	        -10.48654929	        268.29530819	        -19.02301986	         -0.38061985	          0.00000000	         -0.09352967	         -0.00000000	         -0.00000000	         -0.00000000	         -0.00000000	          0.00000000	         -0.00000000	          0.00000000	          0.20223703	          0.00000000	          0.00000000	          0.00000000	          0.00000000	
          3.06000000	        -18.12127825	        296.47424024	        -16.25275184	         -0.38561981	          0.00000000	         -0.09637250	         -0.00000000	         -0.00000001	         -0.00000000	         -0.00000000	          0.00000000	         -0.00000000	          0.00000000	          0.15054053	          0.00000000	          0.00000000	          0.00000000	          0.00000000	
